# xmcd CD database file
#
# Track frame offsets:
#	150
#	7967
#	22790
#	33285
#	43037
#	52645
#	63235
#	72745
#	82810
#	102950
#	118125
#	129067
#	143982
#	163642
#	178922
#	190587
#	200510
#	213117
#	222707
#	234540
#
# Disc length: 3301 seconds
#
# Revision: 0
# Processed by: cddbd v1.5.1PL0 Copyright (c) Steve Scherf et al.
# Submitted via: ACXtractor (MTCDDB.DLL V2003.07.15)
#
DISCID=0e0ce314
DTITLE=Various Artist - You Win Again - 20 Classic Country Tracks
DYEAR=1994
DGENRE=Country
TTITLE0=George Jones - Jambalaya
TTITLE1=Billie Joe Spears - Crystal Chandeliers
TTITLE2=Johnny Cash - You Win Again
TTITLE3=Eddie Jones - Deep In The Heart Of Texas
TTITLE4=Jerry Lee Lewis - Walk Right In
TTITLE5=Don Gibson - Oh, Lonesome Me
TTITLE6=Donna Fargo - Sticks And Stones
TTITLE7=Carl Perkins - Daddy Sang Bass
TTITLE8=Gram Parsons and Emmylou Harris - Love Hurts
TTITLE9=Don Fardon - Indian Reservation
TTITLE10=Hank Locklin - Send Me The Pillow You Dream On
TTITLE11=Jeanie C Riley - Harper Valley PTA
TTITLE12=Marty Robbins - El Paso
TTITLE13=Jim Reeves - The Blizzard
TTITLE14=Patsy Cline - Today, Tommorrow And Forever
TTITLE15=Johnny Paycheck - Who Needs Your Love
TTITLE16=Kitty Wells - Making Belive
TTITLE17=Ned Miller - From A Jack To A King
TTITLE18=Roy Drusky - Take These Chains From My Heart
TTITLE19=Lynn Anderson - Rose Garden
EXTD=ID3G:   2 YEAR: 1994
EXTT0=
EXTT1=
EXTT2=
EXTT3=
EXTT4=
EXTT5=
EXTT6=
EXTT7=
EXTT8=
EXTT9=
EXTT10=
EXTT11=
EXTT12=
EXTT13=
EXTT14=
EXTT15=
EXTT16=
EXTT17=
EXTT18=
EXTT19=
PLAYORDER=
